<svg width="294.8399963378906" height="97.52639751948733" viewBox="0 0 420.2222222222223 139" class="looka-1j8o68f"><defs id="SvgjsDefs1719"></defs><g id="SvgjsG1720" featurekey="rootContainer" transform="matrix(Infinity,0,0,Infinity,0,0)" fill="#ffffff"></g><g id="SvgjsG1721" featurekey="symbolGroupContainer" transform="matrix(1,0,0,1,0,0)" fill="#0003fd"><rect xmlns="http://www.w3.org/2000/svg" width="128" height="139" rx="10" ry="10"></rect></g><g id="SvgjsG1722" featurekey="Z2iLy3-0" transform="matrix(6.010920517444972,0,0,6.010920517444972,20.186575078244196,-6.22673311996952)" fill="#f9f7f7"><path d="M0.80078 5.195 l5.6836 0 q1.015625 0 1.948242188 0.263671875 t1.7383 0.74219 t1.4648 1.1475 t1.1279 1.4893 t0.72266 1.7676 t0.25391 1.9727 t-0.25391 1.9727 t-0.72266 1.7725 t-1.1279 1.5039 t-1.4648 1.1621 t-1.7383 0.74707 t-1.9482 0.26367 l-5.6836 0 l0 -2.6758 l1.1816 0 l0 -9.4434 l-1.1816 0 l0 -2.6855 z M5.2246 7.881 l0 9.4434 l1.2402 0 q0.791015625 0 1.494140625 -0.37109375 t1.2207 -1.0107 t0.82031 -1.5039 t0.30273 -1.8604 q0 -0.986328125 -0.302734375 -1.845703125 t-0.82031 -1.4941 t-1.2207 -0.99609 t-1.4941 -0.36133 l-1.2402 0 z"></path></g><g id="SvgjsG1723" featurekey="usJxlK-0" transform="matrix(3.4397273174952647,0,0,3.4397273174952647,145.24553516453523,1.642424858259215)" fill="#060606"><path d="M0.80078 5.195 l5.6836 0 q1.015625 0 1.948242188 0.263671875 t1.7383 0.74219 t1.4648 1.1475 t1.1279 1.4893 t0.72266 1.7676 t0.25391 1.9727 t-0.25391 1.9727 t-0.72266 1.7725 t-1.1279 1.5039 t-1.4648 1.1621 t-1.7383 0.74707 t-1.9482 0.26367 l-5.6836 0 l0 -2.6758 l1.1816 0 l0 -9.4434 l-1.1816 0 l0 -2.6855 z M5.2246 7.881 l0 9.4434 l1.2402 0 q0.791015625 0 1.494140625 -0.37109375 t1.2207 -1.0107 t0.82031 -1.5039 t0.30273 -1.8604 q0 -0.986328125 -0.302734375 -1.845703125 t-0.82031 -1.4941 t-1.2207 -0.99609 t-1.4941 -0.36133 l-1.2402 0 z M15.4394375 5.195 l11.777 0 l0 5.0488 l-3.1836 0 l0 -2.0996 l-3.7988 0 l0 2.9199 l2.9395 0 l0 2.832 l-2.9395 0 l0 3.4277 l3.7988 0 l0 -2.627 l3.1836 0 l0 5.3027 l-11.777 0 l0 -2.6758 l1.5527 0 l0 -9.1797 l-1.5527 0 l0 -2.9492 z M36.0352 9.365 q-0.048828125 -0.341796875 -0.2392578125 -0.64453125 t-0.48828 -0.52246 t-0.67383 -0.34668 t-0.78613 -0.12695 q-0.37109375 0 -0.693359375 0.078125 t-0.56152 0.23926 t-0.38086 0.41504 t-0.1416 0.60547 q0 0.439453125 0.1904296875 0.6982421875 t0.48828 0.4248 t0.65918 0.26367 t0.70313 0.21484 l2.6855 0.89844 q0.556640625 0.1953125 1.044921875 0.537109375 t0.84473 0.83008 t0.56152 1.123 t0.20508 1.4258 q0 1.07421875 -0.3955078125 1.962890625 t-1.1084 1.5234 t-1.709 0.98633 t-2.207 0.35156 q-0.849609375 0 -1.606445313 -0.1904296875 t-1.3818 -0.55176 t-1.0938 -0.86426 t-0.73242 -1.1377 l-1.0059 0 l0 -2.9395 l3.5352 0 l0 0.60547 q0 0.439453125 0.1416015625 0.810546875 t0.4248 0.64453 t0.71289 0.4248 t1.0059 0.15137 q0.87890625 0 1.337890625 -0.4052734375 t0.45898 -1.1279 q0 -0.37109375 -0.1611328125 -0.6201171875 t-0.41504 -0.41992 t-0.56641 -0.28809 t-0.61523 -0.21484 l-2.2363 -0.72266 q-0.634765625 -0.1953125 -1.225585938 -0.546875 t-1.0449 -0.87891 t-0.72266 -1.2354 t-0.26855 -1.6162 q0 -1.0546875 0.390625 -1.879882813 t1.0938 -1.3916 t1.6699 -0.85938 t2.1191 -0.29297 q0.908203125 0 1.6796875 0.2099609375 t1.3818 0.56152 t1.0352 0.80566 t0.64941 0.94238 l0.97656 0 l0 2.9492 l-3.5352 0 l0 -0.85938 z M41.074203125 5.195 l6.3379 0 l0 2.6758 l-1.5625 0 l0 9.4531 l1.5625 0 l0 2.6758 l-6.3379 0 l0 -2.6758 l1.5332 0 l0 -9.4531 l-1.5332 0 l0 -2.6758 z M59.716859375 20 l0 -2.5391 q-0.60546875 1.064453125 -1.181640625 1.5625 t-1.3037 0.80078 t-1.9482 0.29297 q-0.60546875 -0.009765625 -1.2109375 -0.1416015625 t-1.1719 -0.37109 t-1.1084 -0.57617 t-0.98145 -0.77637 q-1.083984375 -1.09375 -1.684570313 -2.534179688 t-0.60059 -3.1396 q0 -1.044921875 0.25390625 -2.021484375 t0.71289 -1.8262 t1.1084 -1.5479 t1.4453 -1.1963 t1.7139 -0.77148 t1.9238 -0.27344 q1.15234375 0 2.001953125 0.3076171875 t1.8262 1.1475 l2.1875 0 l0 3.3008 l-3.0176 0 q-0.44921875 -0.693359375 -0.8447265625 -1.005859375 t-0.85938 -0.51758 t-1.2939 -0.20508 q-0.8203125 0 -1.5234375 0.37109375 t-1.2158 1.001 t-0.80566 1.4844 t-0.29297 1.7529 q0 0.888671875 0.263671875 1.689453125 t0.80078 1.4404 t1.25 0.98145 t1.5234 0.3418 q1.03515625 0 1.806640625 -0.60546875 t1.1133 -1.6504 l-2.8223 0 l0 -2.6758 l6.8555 0 l0 7.9004 l-2.9199 0 z M74.316421875 5.195 l5.625 0 l0 2.6855 l-1.2012 0 l0 12.119 l-3.2422 0 l-6.1621 -9.5703 l0 6.8945 l1.2402 0 l0 2.6758 l-5.6152 0 l0 -2.6758 l1.2207 0 l0 -9.4434 l-1.2012 0 l0 -2.6855 l4.4727 0 l6.123 9.6973 l0 -7.0117 l-1.2598 0 l0 -2.6855 z"></path></g><g id="SvgjsG1724" featurekey="usJxlK-1" transform="matrix(2.571069124864648,0,0,2.571069124864648,145.16308050924889,68.77331674209344)" fill="#060606"><path d="M1.1035 17.3242 l1.377 0 l0 -9.4434 l-1.377 0 l0 -2.6855 l6.0938 0 l4.3652 10.684 l4.0527 -10.684 l6.1816 0 l0 2.6855 l-1.377 0 l0 9.4434 l1.3574 0 l0 2.6758 l-5.5371 0 l0 -2.6758 l1.0156 0 l0 -8.5156 l-4.4336 11.016 l-2.7441 0 l-4.5117 -10.723 l0 8.2227 l1.1035 0 l0 2.6758 l-5.5664 0 l0 -2.6758 z M31.621090625 17.3242 l1.4746 0 l-0.66406 -2.1289 l-4.5508 0 l-0.66406 2.1289 l1.5625 0 l0 2.6758 l-5.6152 0 l0 -2.6758 l1.1035 0 l4.0332 -12.129 l3.916 0 l3.9453 12.129 l1.0742 0 l0 2.6758 l-5.6152 0 l0 -2.6758 z M28.652390625 12.6953 l2.9883 0 l-1.5039 -4.8145 z M38.5644375 5.195 l11.777 0 l0 5.0488 l-3.1836 0 l0 -2.0996 l-3.7988 0 l0 2.9199 l2.9395 0 l0 2.832 l-2.9395 0 l0 3.4277 l3.7988 0 l0 -2.627 l3.1836 0 l0 5.3027 l-11.777 0 l0 -2.6758 l1.5527 0 l0 -9.1797 l-1.5527 0 l0 -2.9492 z M59.1602 9.365 q-0.048828125 -0.341796875 -0.2392578125 -0.64453125 t-0.48828 -0.52246 t-0.67383 -0.34668 t-0.78613 -0.12695 q-0.37109375 0 -0.693359375 0.078125 t-0.56152 0.23926 t-0.38086 0.41504 t-0.1416 0.60547 q0 0.439453125 0.1904296875 0.6982421875 t0.48828 0.4248 t0.65918 0.26367 t0.70313 0.21484 l2.6855 0.89844 q0.556640625 0.1953125 1.044921875 0.537109375 t0.84473 0.83008 t0.56152 1.123 t0.20508 1.4258 q0 1.07421875 -0.3955078125 1.962890625 t-1.1084 1.5234 t-1.709 0.98633 t-2.207 0.35156 q-0.849609375 0 -1.606445313 -0.1904296875 t-1.3818 -0.55176 t-1.0938 -0.86426 t-0.73242 -1.1377 l-1.0059 0 l0 -2.9395 l3.5352 0 l0 0.60547 q0 0.439453125 0.1416015625 0.810546875 t0.4248 0.64453 t0.71289 0.4248 t1.0059 0.15137 q0.87890625 0 1.337890625 -0.4052734375 t0.45898 -1.1279 q0 -0.37109375 -0.1611328125 -0.6201171875 t-0.41504 -0.41992 t-0.56641 -0.28809 t-0.61523 -0.21484 l-2.2363 -0.72266 q-0.634765625 -0.1953125 -1.225585938 -0.546875 t-1.0449 -0.87891 t-0.72266 -1.2354 t-0.26855 -1.6162 q0 -1.0546875 0.390625 -1.879882813 t1.0938 -1.3916 t1.6699 -0.85938 t2.1191 -0.29297 q0.908203125 0 1.6796875 0.2099609375 t1.3818 0.56152 t1.0352 0.80566 t0.64941 0.94238 l0.97656 0 l0 2.9492 l-3.5352 0 l0 -0.85938 z M66.738303125 17.3242 l1.5332 0 l0 -9.541 l-1.7969 0 l0 1.9141 l-3.1836 0 l0 -4.502 l13.467 0 l0 4.502 l-3.2031 0 l0 -1.9141 l-2.041 0 l0 9.541 l1.5625 0 l0 2.6758 l-6.3379 0 l0 -2.6758 z M78.164046875 5.195 l7.832 0 q1.142578125 0 2.041015625 0.341796875 t1.5137 0.91309 t0.94238 1.3281 t0.32715 1.5771 q0 0.751953125 -0.1611328125 1.318359375 t-0.46875 1.0059 t-0.75684 0.77637 t-1.0254 0.61035 q0.498046875 0.25390625 0.87890625 0.7763671875 t0.57617 1.3525 l0.49805 1.9238 l1.2207 0 l0.019531 2.8809 l-4.2969 0 l-0.58594 -3.5156 q-0.087890625 -0.625 -0.2685546875 -1.079101563 t-0.4834 -0.74219 t-0.7373 -0.4248 t-1.0303 -0.13672 l-1.2598 0 l0 3.2227 l1.3574 0 l0 2.6758 l-6.1328 0 l0 -2.6758 l1.5332 0 l0 -9.4434 l-1.5332 0 l0 -2.6855 z M82.939446875 7.881 l0 3.584 l1.9434 0 q0.556640625 0 1.000976563 -0.1025390625 t0.76172 -0.32227 t0.48828 -0.55176 t0.1709 -0.79102 q0 -0.859375 -0.615234375 -1.337890625 t-1.8066 -0.47852 l-1.9434 0 z M99.804653125 20.26367 q-1.005859375 0 -1.923828125 -0.2734375 t-1.7139 -0.77148 t-1.4453 -1.1963 t-1.1084 -1.5527 t-0.71289 -1.8311 t-0.25391 -2.041 t0.25391 -2.0459 t0.71289 -1.8359 t1.1084 -1.5527 t1.4453 -1.1963 t1.7139 -0.77148 t1.9238 -0.27344 t1.9287 0.27344 t1.7188 0.77148 t1.4453 1.1963 t1.1133 1.5527 t0.71777 1.8359 t0.25391 2.0459 q0 1.0546875 -0.25390625 2.036132813 t-0.71777 1.8359 t-1.1133 1.5527 t-1.4453 1.1963 t-1.7188 0.77148 t-1.9287 0.27344 z M99.804653125 17.1973 q0.849609375 0 1.557617188 -0.3662109375 t1.2158 -0.99609 t0.78613 -1.4648 t0.27832 -1.7725 q0 -0.947265625 -0.283203125 -1.787109375 t-0.7959 -1.4697 t-1.2158 -0.99609 t-1.543 -0.36621 t-1.543 0.36621 t-1.2109 0.99609 t-0.7959 1.4697 t-0.28809 1.7871 q0 0.9375 0.2880859375 1.772460938 t0.7959 1.4648 t1.2109 0.99609 t1.543 0.36621 z"></path></g></svg>